<?xml version="1.0" encoding="UTF-8" standalone="no"?><!DOCTYPE svg PUBLIC "-//W3C//DTD SVG 1.1//EN" "http://www.w3.org/Graphics/SVG/1.1/DTD/svg11.dtd"><svg width="100%" height="100%" viewBox="0 0 276 276" version="1.1" xmlns="http://www.w3.org/2000/svg" xmlns:xlink="http://www.w3.org/1999/xlink" xml:space="preserve" xmlns:serif="http://www.serif.com/" style="fill-rule:evenodd;clip-rule:evenodd;stroke-linejoin:round;stroke-miterlimit:1.41421;"><rect id="background" x="0.342" y="0.436" width="274.984" height="275" style="fill:none;"/><clipPath id="_clip1"><rect x="0.342" y="0.436" width="274.984" height="275"/></clipPath><g clip-path="url(#_clip1)"><g id="background1" serif:id="background"><rect x="0.342" y="0.436" width="274.984" height="275" style="fill:#50a3cc;"/><g><g><g opacity="0.300003"><g><g opacity="0.600006"><path d="M29.175,33.162l3.329,10.245l10.772,0l-8.715,6.332l3.33,10.245l-8.716,-6.331l-8.716,6.331l3.33,-10.245l-8.716,-6.332l10.774,0l3.328,-10.245Z" style="fill:#fff;fill-rule:nonzero;"/></g></g><g><g opacity="0.600006"><path d="M166.625,33.162l3.329,10.245l10.772,0l-8.715,6.332l3.33,10.245l-8.716,-6.331l-8.716,6.331l3.33,-10.245l-8.716,-6.332l10.774,0l3.328,-10.245Z" style="fill:#fff;fill-rule:nonzero;"/></g></g><g><g opacity="0.600006"><path d="M97.898,5.954l3.329,10.245l10.773,0l-8.715,6.332l3.329,10.246l-8.716,-6.332l-8.715,6.332l3.329,-10.246l-8.716,-6.332l10.774,0l3.328,-10.245Z" style="fill:#fff;fill-rule:nonzero;"/></g></g><g><g opacity="0.600006"><path d="M235.348,5.954l3.329,10.245l10.773,0l-8.716,6.332l3.33,10.246l-8.716,-6.332l-8.716,6.332l3.33,-10.246l-8.716,-6.332l10.773,0l3.329,-10.245Z" style="fill:#fff;fill-rule:nonzero;"/></g></g></g></g><g><g opacity="0.300003"><g><g opacity="0.600006"><path d="M29.175,85.557l3.329,10.245l10.772,0l-8.715,6.332l3.33,10.245l-8.716,-6.331l-8.716,6.331l3.33,-10.245l-8.716,-6.332l10.774,0l3.328,-10.245Z" style="fill:#fff;fill-rule:nonzero;"/></g></g><g><g opacity="0.600006"><path d="M166.625,85.557l3.329,10.245l10.772,0l-8.715,6.332l3.33,10.245l-8.716,-6.331l-8.716,6.331l3.33,-10.245l-8.716,-6.332l10.774,0l3.328,-10.245Z" style="fill:#fff;fill-rule:nonzero;"/></g></g><g><g opacity="0.600006"><path d="M97.898,58.349l3.329,10.245l10.773,0l-8.715,6.332l3.329,10.246l-8.716,-6.332l-8.715,6.332l3.329,-10.246l-8.716,-6.332l10.774,0l3.328,-10.245Z" style="fill:#fff;fill-rule:nonzero;"/></g></g><g><g opacity="0.600006"><path d="M235.348,58.349l3.329,10.245l10.773,0l-8.716,6.332l3.33,10.246l-8.716,-6.332l-8.716,6.332l3.33,-10.246l-8.716,-6.332l10.773,0l3.329,-10.245Z" style="fill:#fff;fill-rule:nonzero;"/></g></g></g></g><g><g opacity="0.300003"><g><g opacity="0.600006"><path d="M29.175,137.952l3.329,10.245l10.772,0l-8.715,6.332l3.33,10.245l-8.716,-6.331l-8.716,6.331l3.33,-10.245l-8.716,-6.332l10.774,0l3.328,-10.245Z" style="fill:#fff;fill-rule:nonzero;"/></g></g><g><g opacity="0.600006"><path d="M166.625,137.952l3.329,10.245l10.772,0l-8.715,6.332l3.33,10.245l-8.716,-6.331l-8.716,6.331l3.33,-10.245l-8.716,-6.332l10.774,0l3.328,-10.245Z" style="fill:#fff;fill-rule:nonzero;"/></g></g><g><g opacity="0.600006"><path d="M97.898,110.744l3.329,10.245l10.773,0l-8.715,6.332l3.329,10.246l-8.716,-6.332l-8.715,6.332l3.329,-10.246l-8.716,-6.332l10.774,0l3.328,-10.245Z" style="fill:#fff;fill-rule:nonzero;"/></g></g><g><g opacity="0.600006"><path d="M235.348,110.744l3.329,10.245l10.773,0l-8.716,6.332l3.33,10.246l-8.716,-6.332l-8.716,6.332l3.33,-10.246l-8.716,-6.332l10.773,0l3.329,-10.245Z" style="fill:#fff;fill-rule:nonzero;"/></g></g></g></g><g><g opacity="0.300003"><g><g opacity="0.600006"><path d="M29.175,190.347l3.329,10.245l10.772,0l-8.715,6.332l3.33,10.245l-8.716,-6.331l-8.716,6.331l3.33,-10.245l-8.716,-6.332l10.774,0l3.328,-10.245Z" style="fill:#fff;fill-rule:nonzero;"/></g></g><g><g opacity="0.600006"><path d="M166.625,190.347l3.329,10.245l10.772,0l-8.715,6.332l3.33,10.245l-8.716,-6.331l-8.716,6.331l3.33,-10.245l-8.716,-6.332l10.774,0l3.328,-10.245Z" style="fill:#fff;fill-rule:nonzero;"/></g></g><g><g opacity="0.600006"><path d="M97.898,163.139l3.329,10.245l10.773,0l-8.715,6.332l3.329,10.246l-8.716,-6.332l-8.715,6.332l3.329,-10.246l-8.716,-6.332l10.774,0l3.328,-10.245Z" style="fill:#fff;fill-rule:nonzero;"/></g></g><g><g opacity="0.600006"><path d="M235.348,163.139l3.329,10.245l10.773,0l-8.716,6.332l3.33,10.246l-8.716,-6.332l-8.716,6.332l3.33,-10.246l-8.716,-6.332l10.773,0l3.329,-10.245Z" style="fill:#fff;fill-rule:nonzero;"/></g></g></g></g><g><g opacity="0.300003"><g><g opacity="0.600006"><path d="M29.175,242.742l3.329,10.245l10.772,0l-8.715,6.332l3.33,10.245l-8.716,-6.331l-8.716,6.331l3.33,-10.245l-8.716,-6.332l10.774,0l3.328,-10.245Z" style="fill:#fff;fill-rule:nonzero;"/></g></g><g><g opacity="0.600006"><path d="M166.625,242.742l3.329,10.245l10.772,0l-8.715,6.332l3.33,10.245l-8.716,-6.331l-8.716,6.331l3.33,-10.245l-8.716,-6.332l10.774,0l3.328,-10.245Z" style="fill:#fff;fill-rule:nonzero;"/></g></g><g><g opacity="0.600006"><path d="M97.898,215.534l3.329,10.245l10.773,0l-8.715,6.332l3.329,10.246l-8.716,-6.332l-8.715,6.332l3.329,-10.246l-8.716,-6.332l10.774,0l3.328,-10.245Z" style="fill:#fff;fill-rule:nonzero;"/></g></g><g><g opacity="0.600006"><path d="M235.348,215.534l3.329,10.245l10.773,0l-8.716,6.332l3.33,10.246l-8.716,-6.332l-8.716,6.332l3.33,-10.246l-8.716,-6.332l10.773,0l3.329,-10.245Z" style="fill:#fff;fill-rule:nonzero;"/></g></g></g></g></g></g></g></svg>