<svg xmlns="http://www.w3.org/2000/svg" xmlns:serif="http://www.serif.com/" xmlns:xlink="http://www.w3.org/1999/xlink" width="100%" height="100%" style="fill-rule:evenodd;clip-rule:evenodd;stroke-linejoin:round;stroke-miterlimit:1.41421" version="1.1" viewBox="0 0 781 951" xml:space="preserve">
    <rect id="information" width="779.955" height="950" x="0.605" y="0.657" style="fill:none"/>
    <clipPath id="_clip1">
        <rect width="779.955" height="950" x="0.605" y="0.657"/>
    </clipPath>
    <g clip-path="url(#_clip1)">
        <path id="gameStageBackground" d="M728.241,8.666c0,-4.42 -3.588,-8.009 -8.008,-8.009l-659.302,0c-4.42,0 -8.008,3.589 -8.008,8.009l0,934.322c0,4.42 3.588,8.008 8.008,8.008l659.302,0c4.42,0 8.008,-3.588 8.008,-8.008l0,-934.322Z" style="fill:#fff"/>
        <text x="206.232px" y="882.883px" style="font-family:'MinionPro-Bold', 'Minion Pro', serif;font-weight:700;font-size:50px">
            BACK TO GAME
        </text>
        <g transform="matrix(1,0,0,1,-2512,-2211)">
            <text x="2691.74px" y="2265.43px" style="font-family:'MinionPro-Bold', 'Minion Pro', serif;font-weight:700;font-size:50px">
                Presidential Tac-Toe
            </text>
            <text x="2820.46px" y="2295.43px" style="font-family:'MinionPro-Regular', 'Minion Pro', serif;font-size:25px">
                - a game by BP -
            </text>
            <text x="2581.44px" y="2375.43px" style="font-family:'MinionPro-Regular', 'Minion Pro', serif;font-size:33.333px">
                Acknowledgments:
            </text>
            <text x="2581.44px" y="2455.43px" style="font-family:'MinionPro-Regular', 'Minion Pro', serif;font-size:33.333px">
                Design Program - Aﬃnity Designer
            </text>
            <text x="2581.44px" y="2535.43px" style="font-family:'MinionPro-Regular', 'Minion Pro', serif;font-size:33.333px">
                Trump character, body of Obama and Putin,
            </text>
            <text x="2581.44px" y="2575.43px" style="font-family:'MinionPro-Regular', 'Minion Pro', serif;font-size:33.333px">
                Curtains, and Banners - Freepik.com
            </text>
            <path d="M3048.88,2595.43l0,-0.434c-1.067,-0.1 -1.2,-0.2 -1.2,-1.233l0,-10.083l-0.134,-0.084c-0.25,0.134 -0.483,0.284 -0.75,0.35c-0.333,-0.216 -0.866,-0.383 -1.366,-0.383c-0.684,0.083 -1.317,0.35 -1.95,0.867c-0.934,0.75 -1.234,1.516 -1.35,1.933c-0.134,0.383 -0.217,0.833 -0.217,1.5l0,0.283l-0.783,0l-0.45,0.484l0.066,0.183l1.167,0l0,4.95c0,1.033 -0.117,1.117 -1.167,1.233l0,0.434l3.6,0l0,-0.434c-1.016,-0.1 -1.116,-0.2 -1.116,-1.233l0,-4.95l1.783,0c0.183,-0.117 0.25,-0.517 0.15,-0.667l-1.933,0l0,-0.866c0,-1.267 0.233,-2 0.516,-2.367c0.25,-0.35 0.617,-0.6 1.134,-0.6c0.583,0 1.2,0.317 1.483,0.75l0,8.7c0,1.033 -0.117,1.15 -1.083,1.233l0,0.434l3.6,0Z"/>
            <text x="2592.03px" y="2595.43px" style="font-family:'MinionPro-Regular', 'Minion Pro', serif;font-size:12px">
                (https://www.freepik.com/free-vector/donald-trump-portrait-with-flat-design_3317600.htm)
            </text>
            <text x="2649.36px" y="2615.43px" style="font-family:'MinionPro-Regular', 'Minion Pro', serif;font-size:12px">
                (https://www.freepik.com/free-vector/presidents-day-curtains_765085.htm)
            </text>
            <text x="2604.39px" y="2635.43px" style="font-family:'MinionPro-Regular', 'Minion Pro', serif;font-size:12px">
                (https://www.freepik.com/premium-vector/happy-president-s-day-banner_1747112.htm)
            </text>
            <text x="2581.44px" y="2705.43px" style="font-family:'MinionPro-Regular', 'Minion Pro', serif;font-size:18px">
                Gameplay AI - Ahmad Abdolsaheb
            </text>
            <text x="2587.24px" y="2725.43px" style="font-family:'MinionPro-Regular', 'Minion Pro', serif;font-size:12px">
                (https://medium.freecodecamp.org/how-to-make-your-tic-tac-toe-game-unbeatable-by-using-the-minimax-algorithm-9d690bad4b37)
            </text>
            <text x="2581.44px" y="2825.43px" style="font-family:'MinionPro-Bold', 'Minion Pro', serif;font-weight:700;font-size:18px">
                Note:
            </text>
            <text x="2664.14px" y="2825.43px" style="font-family:'MinionPro-Regular', 'Minion Pro', serif;font-size:12px">
                I started creating this because I wanted to learn more and while I am studying at FreeCodeCamp, I didn&apos;t realize this was a project when I started.
            </text>
            <text x="2581.44px" y="2865.43px" style="font-family:'MinionPro-Regular', 'Minion Pro', serif;font-size:33.333px">
                
            </text>
            <text x="2581.44px" y="2905.43px" style="font-family:'MinionPro-Regular', 'Minion Pro', serif;font-size:33.333px">
                
            </text>
            <text x="2581.44px" y="2945.43px" style="font-family:'MinionPro-Regular', 'Minion Pro', serif;font-size:33.333px">
                
            </text>
        </g>
        <path id="gameStageFrame" d="M720.336,0.658l0.103,0.002l0.103,0.003l0.103,0.005l0.102,0.005l0.102,0.008l0.101,0.008l0.101,0.01l0.101,0.01l0.1,0.013l0.1,0.013l0.1,0.015l0.099,0.015l0.099,0.017l0.098,0.019l0.098,0.019l0.097,0.021l0.098,0.021l0.096,0.023l0.096,0.025l0.096,0.025l0.095,0.026l0.095,0.028l0.094,0.028l0.094,0.03l0.093,0.031l0.093,0.032l0.092,0.033l0.092,0.035l0.091,0.035l0.091,0.036l0.09,0.038l0.089,0.039l0.089,0.039l0.089,0.041l0.088,0.041l0.087,0.043l0.086,0.044l0.086,0.045l0.086,0.045l0.085,0.047l0.084,0.048l0.083,0.049l0.083,0.049l0.082,0.051l0.082,0.052l0.081,0.052l0.08,0.054l0.08,0.054l0.079,0.056l0.078,0.056l0.077,0.057l0.077,0.058l0.076,0.059l0.075,0.06l0.075,0.061l0.074,0.062l0.073,0.062l0.072,0.063l0.071,0.065l0.071,0.065l0.07,0.066l0.069,0.066l0.069,0.068l0.067,0.068l0.067,0.069l0.066,0.07l0.065,0.071l0.064,0.072l0.063,0.072l0.063,0.073l0.062,0.074l0.06,0.074l0.06,0.076l0.059,0.076l0.058,0.076l0.058,0.078l0.056,0.078l0.055,0.079l0.055,0.079l0.053,0.081l0.053,0.081l0.052,0.081l0.05,0.082l0.05,0.083l0.049,0.084l0.047,0.084l0.047,0.085l0.046,0.085l0.045,0.086l0.043,0.087l0.043,0.087l0.042,0.088l0.04,0.088l0.04,0.089l0.039,0.09l0.037,0.09l0.036,0.09l0.036,0.092l0.034,0.091l0.033,0.093l0.032,0.092l0.031,0.094l0.03,0.093l0.029,0.095l0.027,0.094l0.027,0.096l0.025,0.095l0.024,0.096l0.023,0.097l0.022,0.097l0.021,0.098l0.019,0.097l0.018,0.099l0.017,0.099l0.016,0.099l0.015,0.099l0.013,0.1l0.012,0.101l0.011,0.1l0.01,0.101l0.008,0.102l0.007,0.102l0.006,0.102l0.004,0.102l0.004,0.103l0.002,0.103l0,0.104l0,934.322l0,0.103l-0.002,0.103l-0.004,0.103l-0.004,0.103l-0.006,0.102l-0.007,0.102l-0.008,0.101l-0.01,0.101l-0.011,0.101l-0.012,0.1l-0.013,0.1l-0.015,0.1l-0.016,0.099l-0.017,0.099l-0.018,0.098l-0.019,0.098l-0.021,0.098l-0.022,0.097l-0.023,0.096l-0.024,0.096l-0.025,0.096l-0.027,0.095l-0.027,0.095l-0.029,0.094l-0.03,0.094l-0.031,0.093l-0.032,0.093l-0.033,0.092l-0.034,0.092l-0.036,0.091l-0.036,0.091l-0.037,0.09l-0.039,0.089l-0.04,0.089l-0.04,0.089l-0.042,0.088l-0.043,0.087l-0.043,0.086l-0.045,0.087l-0.046,0.085l-0.047,0.085l-0.047,0.084l-0.049,0.083l-0.05,0.083l-0.05,0.083l-0.052,0.081l-0.053,0.081l-0.053,0.08l-0.055,0.08l-0.055,0.079l-0.056,0.078l-0.058,0.077l-0.058,0.077l-0.059,0.076l-0.06,0.075l-0.06,0.075l-0.062,0.074l-0.063,0.073l-0.063,0.072l-0.064,0.071l-0.065,0.071l-0.066,0.07l-0.067,0.069l-0.067,0.069l-0.069,0.067l-0.069,0.067l-0.07,0.066l-0.071,0.065l-0.071,0.064l-0.072,0.064l-0.073,0.062l-0.074,0.062l-0.075,0.06l-0.075,0.06l-0.076,0.059l-0.077,0.059l-0.077,0.057l-0.078,0.056l-0.079,0.055l-0.08,0.055l-0.08,0.053l-0.081,0.053l-0.082,0.052l-0.082,0.05l-0.083,0.05l-0.083,0.049l-0.084,0.047l-0.085,0.047l-0.086,0.046l-0.086,0.045l-0.086,0.043l-0.087,0.043l-0.088,0.042l-0.089,0.041l-0.089,0.039l-0.089,0.039l-0.09,0.037l-0.091,0.037l-0.091,0.035l-0.092,0.034l-0.092,0.033l-0.093,0.032l-0.093,0.031l-0.094,0.03l-0.094,0.029l-0.095,0.027l-0.095,0.027l-0.096,0.025l-0.096,0.024l-0.096,0.023l-0.098,0.022l-0.097,0.021l-0.098,0.019l-0.098,0.018l-0.099,0.017l-0.099,0.016l-0.1,0.015l-0.1,0.013l-0.1,0.012l-0.101,0.011l-0.101,0.01l-0.101,0.008l-0.102,0.007l-0.102,0.006l-0.103,0.005l-0.103,0.003l-0.103,0.002l-0.103,0l-659.302,0l-0.103,0l-0.104,-0.002l-0.102,-0.003l-0.103,-0.005l-0.102,-0.006l-0.102,-0.007l-0.101,-0.008l-0.101,-0.01l-0.101,-0.011l-0.1,-0.012l-0.1,-0.013l-0.1,-0.015l-0.099,-0.016l-0.099,-0.017l-0.098,-0.018l-0.098,-0.019l-0.098,-0.021l-0.097,-0.022l-0.096,-0.023l-0.096,-0.024l-0.096,-0.025l-0.095,-0.027l-0.095,-0.027l-0.094,-0.029l-0.094,-0.03l-0.093,-0.031l-0.093,-0.032l-0.092,-0.033l-0.092,-0.034l-0.091,-0.035l-0.091,-0.037l-0.09,-0.037l-0.09,-0.039l-0.088,-0.039l-0.089,-0.041l-0.088,-0.042l-0.087,-0.043l-0.087,-0.043l-0.086,-0.045l-0.085,-0.046l-0.085,-0.047l-0.084,-0.047l-0.083,-0.049l-0.083,-0.05l-0.083,-0.05l-0.081,-0.052l-0.081,-0.053l-0.08,-0.053l-0.08,-0.055l-0.079,-0.055l-0.078,-0.056l-0.077,-0.057l-0.077,-0.059l-0.076,-0.059l-0.075,-0.06l-0.075,-0.06l-0.074,-0.062l-0.073,-0.062l-0.072,-0.064l-0.072,-0.064l-0.07,-0.065l-0.07,-0.066l-0.069,-0.067l-0.069,-0.067l-0.067,-0.069l-0.067,-0.069l-0.066,-0.07l-0.065,-0.071l-0.064,-0.071l-0.064,-0.072l-0.062,-0.073l-0.062,-0.074l-0.061,-0.075l-0.059,-0.075l-0.059,-0.076l-0.059,-0.077l-0.057,-0.077l-0.056,-0.078l-0.055,-0.079l-0.055,-0.08l-0.053,-0.08l-0.053,-0.081l-0.052,-0.081l-0.05,-0.083l-0.05,-0.083l-0.049,-0.083l-0.048,-0.084l-0.046,-0.085l-0.046,-0.085l-0.045,-0.087l-0.044,-0.086l-0.042,-0.087l-0.042,-0.088l-0.041,-0.089l-0.039,-0.089l-0.039,-0.089l-0.037,-0.09l-0.037,-0.091l-0.035,-0.091l-0.034,-0.092l-0.033,-0.092l-0.032,-0.093l-0.031,-0.093l-0.03,-0.094l-0.029,-0.094l-0.027,-0.095l-0.027,-0.095l-0.025,-0.096l-0.024,-0.096l-0.023,-0.096l-0.022,-0.097l-0.021,-0.098l-0.019,-0.098l-0.018,-0.098l-0.017,-0.099l-0.016,-0.099l-0.015,-0.1l-0.013,-0.1l-0.012,-0.1l-0.011,-0.101l-0.01,-0.101l-0.008,-0.101l-0.007,-0.102l-0.006,-0.102l-0.005,-0.103l-0.003,-0.103l-0.002,-0.103l0,-0.103l0,-934.322l0,-0.104l0.002,-0.103l0.003,-0.103l0.005,-0.102l0.006,-0.102l0.007,-0.102l0.008,-0.102l0.01,-0.101l0.011,-0.1l0.012,-0.101l0.013,-0.1l0.015,-0.099l0.016,-0.099l0.017,-0.099l0.018,-0.099l0.019,-0.097l0.021,-0.098l0.022,-0.097l0.023,-0.097l0.024,-0.096l0.025,-0.095l0.027,-0.096l0.027,-0.094l0.029,-0.095l0.03,-0.093l0.031,-0.094l0.032,-0.092l0.033,-0.093l0.034,-0.091l0.035,-0.092l0.037,-0.09l0.037,-0.09l0.039,-0.09l0.039,-0.089l0.041,-0.088l0.042,-0.088l0.042,-0.087l0.044,-0.087l0.045,-0.086l0.046,-0.085l0.046,-0.085l0.048,-0.084l0.049,-0.084l0.05,-0.083l0.05,-0.082l0.052,-0.081l0.053,-0.081l0.053,-0.081l0.055,-0.079l0.055,-0.079l0.056,-0.078l0.057,-0.078l0.059,-0.076l0.059,-0.076l0.059,-0.076l0.061,-0.074l0.062,-0.074l0.062,-0.073l0.064,-0.072l0.064,-0.072l0.065,-0.071l0.066,-0.07l0.067,-0.069l0.067,-0.068l0.069,-0.068l0.069,-0.066l0.07,-0.066l0.07,-0.065l0.072,-0.065l0.072,-0.063l0.073,-0.062l0.074,-0.062l0.075,-0.061l0.075,-0.06l0.076,-0.059l0.077,-0.058l0.077,-0.057l0.078,-0.056l0.079,-0.056l0.08,-0.054l0.08,-0.054l0.081,-0.052l0.081,-0.052l0.083,-0.051l0.083,-0.049l0.083,-0.049l0.084,-0.048l0.085,-0.047l0.085,-0.045l0.086,-0.045l0.087,-0.044l0.087,-0.043l0.088,-0.041l0.089,-0.041l0.088,-0.039l0.09,-0.039l0.09,-0.038l0.091,-0.036l0.091,-0.035l0.092,-0.035l0.092,-0.033l0.093,-0.032l0.093,-0.031l0.094,-0.03l0.094,-0.028l0.095,-0.028l0.095,-0.026l0.096,-0.025l0.096,-0.025l0.096,-0.023l0.097,-0.021l0.098,-0.021l0.098,-0.019l0.098,-0.019l0.099,-0.017l0.099,-0.015l0.1,-0.015l0.1,-0.013l0.1,-0.013l0.101,-0.01l0.101,-0.01l0.101,-0.008l0.102,-0.008l0.102,-0.005l0.103,-0.005l0.102,-0.003l0.104,-0.002l0.103,-0.001l659.302,0l0.103,0.001Zm-657.413,9.999l0,930.339l655.318,0l0,-930.339l-655.318,0Z" style="fill:#172851"/>
    </g>
</svg>
